<svg xmlns="http://www.w3.org/2000/svg" version="1.1" xmlns:xlink="http://www.w3.org/1999/xlink" xmlns:svgjs="http://svgjs.com/svgjs" width="512" height="512" x="0" y="0" viewBox="0 0 64 64" style="enable-background:new 0 0 512 512" xml:space="preserve" class=""><g><g data-name="book store-shop-building-bookshop"><path fill="#5bcbfa" d="M5 26h54v31H5z" data-original="#5bcbfa" class=""></path><path fill="#acabb1" d="M3 57h58v4H3z" data-original="#acabb1"></path><path fill="#2488ff" d="M11 34h25v16H11z" data-original="#2488ff"></path><path fill="#f8d251" d="M28 22h8v4a4 4 0 0 1-4 4 4 4 0 0 1-4-4v-4z" data-original="#f8d251" class=""></path><path fill="#e8702e" d="M20 22h8v4a4 4 0 0 1-4 4 4 4 0 0 1-4-4v-4z" data-original="#e8702e" class=""></path><path fill="#f8d251" d="M12 22h8v4a4 4 0 0 1-4 4 4 4 0 0 1-4-4v-4z" data-original="#f8d251" class=""></path><path fill="#e8702e" d="M4 22h8v4a4 4 0 0 1-4 4 4 4 0 0 1-4-4v-4zM52 22h8v4a4 4 0 0 1-4 4 4 4 0 0 1-4-4v-4z" data-original="#e8702e" class=""></path><path fill="#f8d251" d="M44 22h8v4a4 4 0 0 1-4 4 4 4 0 0 1-4-4v-4z" data-original="#f8d251" class=""></path><path fill="#e8702e" d="M36 22h8v4a4 4 0 0 1-4 4 4 4 0 0 1-4-4v-4z" data-original="#e8702e" class=""></path><path fill="#e9e9ea" d="M5 17h11v5H5zM47 17h12v5H47z" data-original="#e9e9ea" class=""></path><path fill="#787680" d="M42 34h11v23H42z" data-original="#787680"></path><path fill="#5bcbfa" d="M16 6h32v19H16z" data-original="#5bcbfa" class=""></path><path fill="#f7d4aa" d="M20 3h8a4 4 0 0 1 4 4v14H20V3z" data-original="#f7d4aa" class=""></path><path fill="#f6c08e" d="M44 21H32V7a4 4 0 0 1 4-4h8v18z" data-original="#f6c08e" class=""></path><path d="M61 56h-1V28.97A4.939 4.939 0 0 0 61 26v-4a1 1 0 0 0-1-1v-4a1 1 0 0 0-1-1H49V6a1 1 0 0 0-1-1h-3V3a1 1 0 0 0-1-1h-8a4.994 4.994 0 0 0-4 2.03A4.994 4.994 0 0 0 28 2h-8a1 1 0 0 0-1 1v2h-3a1 1 0 0 0-1 1v10H5a1 1 0 0 0-1 1v4a1 1 0 0 0-1 1v4a4.939 4.939 0 0 0 1 2.97V56H3a1 1 0 0 0-1 1v4a1 1 0 0 0 1 1h58a1 1 0 0 0 1-1v-4a1 1 0 0 0-1-1zm-8-23H42a1 1 0 0 0-1 1v22H6V30.58A4.941 4.941 0 0 0 8 31a4.994 4.994 0 0 0 4-2.03 5.079 5.079 0 0 0 .47.57 4.975 4.975 0 0 0 7.53-.57 4.956 4.956 0 0 0 8 0 4.956 4.956 0 0 0 8 0 4.956 4.956 0 0 0 8 0 4.956 4.956 0 0 0 8 0A4.994 4.994 0 0 0 56 31a4.941 4.941 0 0 0 2-.42V56h-4V34a1 1 0 0 0-1-1zm-1 2v21h-9V35zm-31-9h6a3 3 0 0 1-6 0zm8 0h6a3 3 0 0 1-6 0zm8 0h6a3 3 0 0 1-6 0zm19 3a3.009 3.009 0 0 1-3-3v-3h6v3a3.009 3.009 0 0 1-3 3zm-7-11h9v3h-9zm0 7v-2h2v3a3 3 0 0 1-6 0h3a1 1 0 0 0 1-1zM33 7a3.009 3.009 0 0 1 3-3h7v16H33zM21 4h7a3.009 3.009 0 0 1 3 3v13H21zm-4 3h2v14a1 1 0 0 0 1 1h24a1 1 0 0 0 1-1V7h2v17H17zm-1 19h3a3 3 0 1 1-6 0v-3h2v2a1 1 0 0 0 1 1zM6 18h9v3H6zm-1 5h6v3a3 3 0 0 1-6 0zm55 37H4v-2h56z" fill="#000000" data-original="#000000" class=""></path><path d="M36 33H11a1 1 0 0 0-1 1v16a1 1 0 0 0 1 1h25a1 1 0 0 0 1-1V34a1 1 0 0 0-1-1zm-1 16H12V35h23zM44 43h2v2h-2zM23 7h6v2h-6zM23 11h6v2h-6zM23 15h6v2h-6zM35 7h6v2h-6zM35 11h6v2h-6zM35 15h6v2h-6z" fill="#000000" data-original="#000000" class=""></path></g></g></svg>